<svg xmlns="http://www.w3.org/2000/svg" width="256" height="256" viewBox="0 0 100 100"><rect width="100" height="100" rx="50" fill="#ae6977"></rect><path d="M20.14 70.13L20.14 70.13Q17.43 70.13 15.31 69.29Q13.18 68.44 11.73 66.85Q10.28 65.25 9.51 62.92Q8.74 60.58 8.74 57.60L8.74 57.60Q8.74 55.97 8.97 54.14Q9.20 52.31 9.69 50.43L9.69 50.43Q10.45 47.45 11.67 44.78Q12.89 42.10 14.49 39.83Q16.09 37.56 18.01 35.72Q19.92 33.87 22.05 32.58Q24.17 31.29 26.46 30.59Q28.76 29.90 31.13 29.90L31.13 29.90Q32.25 29.90 33.40 30.16Q34.55 30.43 35.46 31.05Q36.38 31.68 36.95 32.71Q37.52 33.75 37.52 35.29L37.52 35.29Q37.52 36.66 37.12 37.82Q36.72 38.98 36.00 39.94Q35.28 40.91 34.33 41.71Q33.37 42.52 32.28 43.15L32.28 43.15L31.84 42.54Q33.81 40.95 34.75 39.04Q35.69 37.12 35.69 35.02L35.69 35.02Q35.69 32.82 34.68 31.82Q33.67 30.82 31.71 30.82L31.71 30.82Q29.22 30.82 26.65 32.30Q24.07 33.78 21.70 36.36Q19.34 38.95 17.36 42.46Q15.38 45.96 14.09 50.01L14.09 50.01Q13.26 52.62 12.82 55.15Q12.38 57.68 12.38 59.88L12.38 59.88Q12.38 68.93 20.51 68.93L20.51 68.93Q25.15 68.93 29.05 65.99Q32.96 63.05 36.43 56.95L36.43 56.95L37.70 54.70L38.35 55.16L37.08 57.41Q35.23 60.68 33.30 63.07Q31.37 65.47 29.30 67.03Q27.22 68.59 24.95 69.36Q22.68 70.13 20.14 70.13ZM49.34 39.71L48.49 40.20Q48.19 39.64 48.01 38.90Q47.83 38.17 47.83 37.24L47.83 37.24Q47.83 35.53 48.46 34.17Q49.10 32.80 50.23 31.85Q51.37 30.90 52.89 30.38Q54.42 29.87 56.23 29.87L56.23 29.87Q57.10 29.87 57.75 29.98Q58.40 30.09 58.98 30.26Q59.57 30.43 60.19 30.62Q60.82 30.80 61.65 30.97Q62.48 31.14 63.60 31.25Q64.72 31.36 66.33 31.36L66.33 31.36Q67.55 31.36 68.49 31.27Q69.43 31.19 70.26 31.01Q71.09 30.82 71.92 30.54Q72.75 30.26 73.75 29.90L73.75 29.90L73.75 30.33Q72.95 30.55 72.16 30.99Q71.36 31.43 70.63 32.01Q69.90 32.58 69.27 33.25Q68.65 33.92 68.19 34.58L68.19 34.58Q67.90 35.02 67.60 35.55Q67.31 36.07 66.97 36.84Q66.63 37.61 66.19 38.70Q65.75 39.78 65.17 41.33Q64.60 42.88 63.83 44.98Q63.06 47.08 62.06 49.87L62.06 49.87Q60.13 55.19 58.01 59.02Q55.88 62.85 53.50 65.32Q51.12 67.79 48.49 68.96Q45.85 70.13 42.90 70.13L42.90 70.13Q40.92 70.13 39.37 69.64Q37.82 69.15 36.74 68.24Q35.67 67.32 35.11 65.99Q34.55 64.66 34.55 63.00L34.55 63.00Q34.55 61.78 34.84 60.68Q35.13 59.58 35.62 58.76Q36.11 57.95 36.76 57.46Q37.40 56.97 38.11 56.97L38.11 56.97Q38.75 56.97 39.11 57.31Q39.48 57.65 39.48 58.29L39.48 58.29Q39.48 58.78 39.25 59.12Q39.01 59.46 38.66 59.69Q38.31 59.92 37.89 60.10Q37.48 60.27 37.08 60.39L37.08 60.39Q36.35 60.63 36.02 61.29Q35.69 61.95 35.69 63.12L35.69 63.12Q35.69 64.49 36.17 65.60Q36.65 66.71 37.55 67.50Q38.45 68.30 39.72 68.73Q40.99 69.15 42.58 69.15L42.58 69.15Q44.09 69.15 45.37 68.86Q46.66 68.57 47.81 67.86Q48.97 67.15 50.02 65.99Q51.07 64.83 52.14 63.10Q53.20 61.36 54.28 59.01Q55.37 56.65 56.59 53.55L56.59 53.55Q57.57 51.04 58.33 49.12Q59.08 47.20 59.68 45.74Q60.28 44.27 60.73 43.19Q61.18 42.10 61.56 41.28Q61.94 40.47 62.27 39.82Q62.60 39.17 62.96 38.59L62.96 38.59Q64.11 36.68 65.61 35.00Q67.11 33.31 68.95 32.07L68.95 32.07Q67.29 32.56 65.58 32.85Q63.87 33.14 62.50 33.14L62.50 33.14Q61.21 33.14 59.92 32.90Q58.64 32.65 57.46 32.36Q56.27 32.07 55.25 31.82Q54.22 31.58 53.47 31.58L53.47 31.58Q52.54 31.58 51.70 31.98Q50.85 32.39 50.22 33.13Q49.58 33.87 49.22 34.91Q48.85 35.95 48.85 37.22L48.85 37.22Q48.85 38.68 49.34 39.71L49.34 39.71ZM91.26 30.36L90.94 30.90Q89.92 30.60 88.79 30.60L88.79 30.60Q87.11 30.60 85.83 31.36Q84.55 32.12 83.47 33.35Q82.40 34.58 81.47 36.16Q80.54 37.73 79.57 39.38Q78.59 41.03 77.49 42.60Q76.39 44.18 75 45.41Q73.61 46.64 71.83 47.40Q70.04 48.16 67.72 48.16L67.72 48.16Q68.97 48.40 70.04 48.77Q71.12 49.13 71.92 49.74Q72.73 50.35 73.18 51.27Q73.63 52.19 73.63 53.50L73.63 53.50Q73.63 54.77 73.27 56.14Q72.90 57.51 72.45 58.90Q72.00 60.29 71.63 61.71Q71.26 63.12 71.26 64.47L71.26 64.47Q71.26 65.64 71.58 66.48Q71.90 67.32 72.46 67.87Q73.02 68.42 73.78 68.68Q74.54 68.93 75.44 68.93L75.44 68.93Q77.15 68.93 78.61 68.08Q80.08 67.22 81.43 65.65Q82.79 64.07 84.16 61.87Q85.52 59.66 87.06 56.95L87.06 56.95L88.33 54.70L88.96 55.16L87.72 57.41Q85.89 60.63 84.41 63.02Q82.93 65.42 81.46 66.99Q79.98 68.57 78.33 69.35Q76.68 70.13 74.54 70.13L74.54 70.13Q73.07 70.13 71.75 69.76Q70.43 69.40 69.42 68.66Q68.41 67.93 67.82 66.82Q67.24 65.71 67.24 64.20L67.24 64.20Q67.24 62.85 67.65 61.25Q68.07 59.66 68.58 58.06Q69.09 56.46 69.51 54.99Q69.92 53.53 69.92 52.45L69.92 52.45Q69.92 51.70 69.68 51.00Q69.43 50.31 69.03 49.76Q68.63 49.21 68.12 48.84Q67.60 48.47 67.04 48.35L67.04 48.35Q66.94 48.38 66.85 48.38Q66.75 48.38 66.70 48.38L66.70 48.38Q66.06 48.38 66.06 48.06L66.06 48.06Q66.06 47.94 66.24 47.83Q66.41 47.72 66.67 47.72L66.67 47.72Q66.85 47.72 67.02 47.74Q67.19 47.77 67.41 47.91L67.41 47.91Q68.99 47.47 70.26 46.47Q71.53 45.47 72.64 44.12Q73.75 42.76 74.74 41.19Q75.73 39.61 76.76 38.04Q77.78 36.46 78.91 34.99Q80.03 33.51 81.38 32.39Q82.74 31.26 84.39 30.58Q86.04 29.90 88.11 29.90L88.11 29.90Q89.14 29.90 89.88 30.03Q90.63 30.16 91.26 30.36L91.26 30.36Z" fill="#fff"></path></svg>